<svg width="40" height="40" viewBox="0 0 40 40" fill="none" xmlns="http://www.w3.org/2000/svg">
<path d="M33.333 3.33349L33.333 8.55381C33.333 9.04357 32.7209 9.26529 32.4076 8.88904C29.3573 5.47933 24.9247 3.33349 19.9912 3.33349C10.7912 3.33349 3.33301 10.7954 3.33301 20.0002C3.33301 26.5972 7.16385 32.299 12.7213 35.0002M20.6041 36.6668C19.8337 36.6668 19.0755 36.616 18.333 36.5178M36.2285 15.0002C36.4139 15.6456 36.5595 16.2979 36.6663 16.9538M36.6093 22.9161C36.4933 23.5661 36.3422 24.2099 36.1573 24.844M33.642 30.1607C33.2488 30.7349 32.8225 31.2879 32.3646 31.8156M27.7092 35.6278C27.1256 35.9569 26.5181 36.2546 25.8881 36.5178" stroke="white" stroke-width="2" stroke-linecap="round" stroke-linejoin="round"/>
<path d="M26.2192 14.162C23.9844 12.7912 22.034 13.3436 20.8623 14.2235C20.3818 14.5843 20.1417 14.7647 20.0003 14.7647C19.859 14.7647 19.6188 14.5843 19.1383 14.2235C17.9667 13.3436 16.0162 12.7912 13.7815 14.162C10.8487 15.9609 10.1851 21.8959 16.9499 26.903C18.2384 27.8567 18.8827 28.3335 20.0003 28.3335C21.118 28.3335 21.7622 27.8567 23.0507 26.903C29.8156 21.8959 29.1519 15.9609 26.2192 14.162Z" stroke="white" stroke-width="2" stroke-linecap="round"/>
</svg>
