<svg width="32" height="32" viewBox="0 0 32 32" fill="none" xmlns="http://www.w3.org/2000/svg">
<path d="M7.33366 20.6665C4.38426 19.4886 2.66699 16.5769 2.66699 13.566C2.66699 9.66078 5.7563 5.80163 7.92467 3.57391C9.10231 2.36403 10.8983 2.36403 12.076 3.57391C12.732 4.24786 13.2868 5.07114 14.0003 5.99983" stroke="#FF5449" stroke-width="1.5" stroke-linecap="round"/>
<path d="M10.667 19.9016C10.667 15.1596 14.5989 10.4734 17.3586 7.76835C18.8574 6.29922 21.1433 6.29922 22.6421 7.76835C25.4018 10.4734 29.3337 15.1596 29.3337 19.9016C29.3337 24.551 25.7993 29.3332 20.0003 29.3332C14.2014 29.3332 10.667 24.551 10.667 19.9016Z" stroke="#FF5449" stroke-width="1.5"/>
<path d="M24.667 20.6665C24.667 23.612 22.667 24.6665 20.667 24.6665" stroke="#FF5449" stroke-width="1.5" stroke-linecap="round" stroke-linejoin="round"/>
</svg>
