<svg width="40" height="40" viewBox="0 0 40 40" fill="none" xmlns="http://www.w3.org/2000/svg">
<path d="M13.333 35C12.6293 32.9498 11.4245 28.761 12.1521 22.1173C12.438 19.5073 13.5653 17.6759 11.1214 16.7161V16.7161C8.95848 15.8666 4.46637 15.8278 3.63746 13.657C3.29439 12.7585 3.19381 11.613 3.5855 10.1984C3.68425 9.84174 3.9961 9.58909 4.36215 9.53468L7.16904 9.11746C8.29948 8.94942 9.19852 8.11021 9.91448 7.2194C11.169 5.65846 13.6459 4.23878 17.7624 5.46256C24.76 7.54283 26.5093 16.644 23.7603 17.6842C21.0113 18.7243 16.7627 18.9843 16.2629 9.62311" stroke="white" stroke-width="2" stroke-linecap="round"/>
<path d="M22.911 25.9523C26.0567 22.2969 33.1818 15.1567 36.1965 15.0035C38.0616 14.8249 34.346 21.4423 25.5426 28.6832M26.9478 22.1751L29.2472 24.4976M18.333 33.1862C19.0556 30.6321 18.5997 31.8873 18.8464 28.946C18.9778 28.5105 19.2421 27.1591 20.8931 26.4856C22.7699 25.72 24.1457 26.8773 24.5013 27.4212C25.5489 28.5572 25.6703 29.968 24.5013 31.5796C23.3322 33.1913 19.8644 33.5917 18.333 33.1862Z" stroke="white" stroke-width="2" stroke-linecap="round" stroke-linejoin="round"/>
</svg>
