<svg width="32" height="32" viewBox="0 0 32 32" fill="none" xmlns="http://www.w3.org/2000/svg">
<path d="M11.1938 3.40243C13.1603 2.18396 14.8767 2.67499 15.9078 3.45714C16.3306 3.77783 16.5419 3.93819 16.6663 3.93819C16.7907 3.93819 17.0021 3.77783 17.4249 3.45714C18.4559 2.67499 20.1723 2.18396 22.1389 3.40243C24.7198 5.00152 25.3038 10.277 19.3507 14.7278C18.2169 15.5755 17.6499 15.9993 16.6663 15.9993C15.6827 15.9993 15.1158 15.5755 13.9819 14.7278C8.02894 10.277 8.61293 5.00152 11.1938 3.40243Z" stroke="#0B1A97" stroke-width="1.5" stroke-linecap="round"/>
<path d="M5.33301 18.6665H8.5261C8.9183 18.6665 9.30511 18.7549 9.6559 18.9246L12.3785 20.242C12.7293 20.4117 13.1161 20.5 13.5083 20.5H14.8985C16.243 20.5 17.333 21.5548 17.333 22.8558C17.333 22.9084 17.297 22.9546 17.2447 22.969L13.8569 23.9058C13.2491 24.0738 12.5983 24.0153 12.033 23.7417L9.12249 22.3336" stroke="#0B1A97" stroke-width="1.5" stroke-linecap="round" stroke-linejoin="round"/>
<path d="M17.333 22L23.4567 20.1186C24.5423 19.7803 25.7158 20.1814 26.3958 21.1231C26.8875 21.8039 26.6873 22.779 25.971 23.1923L15.9502 28.974C15.3129 29.3418 14.5609 29.4315 13.8599 29.2235L5.33301 26.6932" stroke="#0B1A97" stroke-width="1.5" stroke-linecap="round" stroke-linejoin="round"/>
</svg>
