<svg width="32" height="32" viewBox="0 0 32 32" fill="none" xmlns="http://www.w3.org/2000/svg">
<path d="M4 14.6665C4 9.66686 4 7.16704 5.27321 5.4146C5.68441 4.84864 6.18213 4.35092 6.74809 3.93972C8.50053 2.6665 11.0004 2.6665 16 2.6665C20.9996 2.6665 23.4995 2.6665 25.2519 3.93972C25.8179 4.35092 26.3156 4.84864 26.7268 5.4146C28 7.16704 28 9.66686 28 14.6665V17.3332C28 22.3328 28 24.8326 26.7268 26.585C26.3156 27.151 25.8179 27.6488 25.2519 28.06C23.4995 29.3332 20.9996 29.3332 16 29.3332C11.0004 29.3332 8.50053 29.3332 6.74809 28.06C6.18213 27.6488 5.68441 27.151 5.27321 26.585C4 24.8326 4 22.3328 4 17.3332V14.6665Z" stroke="#3AB6A7" stroke-width="1.5"/>
<path d="M21.9701 10.0699C19.8247 8.85145 17.9523 9.34247 16.8275 10.1246C16.3662 10.4453 16.1357 10.6057 16 10.6057C15.8643 10.6057 15.6338 10.4453 15.1725 10.1246C14.0477 9.34247 12.1753 8.85145 10.03 10.0699C7.21446 11.669 6.57737 16.9445 13.0716 21.3952C14.3086 22.243 14.927 22.6668 16 22.6668C17.073 22.6668 17.6914 22.243 18.9284 21.3952C25.4226 16.9445 24.7855 11.669 21.9701 10.0699Z" stroke="#3AB6A7" stroke-width="1.5" stroke-linecap="round"/>
<path d="M15.9997 13.3335V18.6668M13.333 16.0002H18.6663" stroke="#3AB6A7" stroke-width="1.5" stroke-linecap="round"/>
</svg>
