<svg width="32" height="32" viewBox="0 0 32 32" fill="none" xmlns="http://www.w3.org/2000/svg">
<path d="M10.6673 13.333C8.49764 13.3603 7.25106 13.4872 6.40793 14.0777C5.33398 14.8298 5.33398 16.0404 5.33398 18.4615V22.8637C5.33398 25.2849 5.33398 26.4954 6.40793 27.2476C7.48186 27.9997 9.21036 27.9997 12.6673 27.9997C16.1243 27.9997 17.8528 27.9997 18.9267 27.2476C20.0007 26.4954 20.0007 25.2849 20.0007 22.8637V20.2042" stroke="white" stroke-width="1.5" stroke-linecap="round"/>
<path d="M15.5125 23.5118C16.0007 23.0237 16.0007 22.238 16.0007 20.6667C16.0007 20.1401 16.0007 19.7018 15.9823 19.3333L14.0007 17.3517C13.6322 17.3333 13.1939 17.3333 12.6673 17.3333C11.096 17.3333 10.3103 17.3333 9.82214 17.8215C9.33398 18.3097 9.33398 19.0953 9.33398 20.6667C9.33398 22.238 9.33398 23.0237 9.82214 23.5118C10.3103 24 11.096 24 12.6673 24C14.2387 24 15.0243 24 15.5125 23.5118Z" stroke="white" stroke-width="1.5" stroke-linejoin="round"/>
<path d="M13.334 6.46293C15.2487 4.90524 17.5355 4 19.9916 4C22.4555 4 24.7489 4.91096 26.6673 6.47769M23.6244 10.6667C22.5309 9.98479 21.2972 9.60113 19.9916 9.60113C18.6927 9.60113 17.4647 9.98093 16.3753 10.6564" stroke="white" stroke-width="1.5" stroke-linecap="round"/>
<path d="M20 14.667H20.0085" stroke="white" stroke-width="2" stroke-linecap="round" stroke-linejoin="round"/>
</svg>
