<svg width="40" height="40" viewBox="0 0 40 40" fill="none" xmlns="http://www.w3.org/2000/svg">
<path d="M28.333 3.3335C28.333 4.18326 28.333 4.60815 28.4458 5.0041C28.5078 5.2216 28.5947 5.43123 28.7047 5.62888C28.9048 5.98865 29.2053 6.2891 29.8062 6.88996L33.1098 10.1937C33.7107 10.7946 34.0112 11.095 34.371 11.2952C34.5687 11.4051 34.7782 11.492 34.9957 11.554C35.3917 11.6668 35.8165 11.6668 36.6663 11.6668" stroke="white" stroke-width="2" stroke-linecap="round" stroke-linejoin="round"/>
<path d="M19.4882 11.6665L11.2751 19.8795C9.50047 21.6542 8.61317 22.5415 8.40167 23.6048C8.31012 24.065 8.31012 24.5388 8.40167 24.9992C8.61317 26.0625 9.50049 26.9498 11.2751 28.7245C13.0497 30.499 13.937 31.3863 15.0003 31.5978" stroke="white" stroke-width="2" stroke-linecap="round" stroke-linejoin="round"/>
<path d="M18.333 10L28.333 20" stroke="white" stroke-width="2" stroke-linecap="round" stroke-linejoin="round"/>
<path d="M13.3337 31.0618L11.3846 32.454C10.6001 33.0143 10.2079 33.2945 9.77775 33.3283C9.61094 33.3415 9.4431 33.3277 9.28072 33.2872C8.86202 33.1832 8.52119 32.8423 7.83952 32.1607C7.15787 31.479 6.81704 31.1382 6.71292 30.7195C6.67254 30.557 6.65865 30.3892 6.67179 30.2223C6.70565 29.7923 6.98582 29.4 7.54614 28.6157L8.93835 26.6665" stroke="white" stroke-width="2" stroke-linecap="round" stroke-linejoin="round"/>
<path d="M22.5 13.3332L30.8333 6.6665M26.6667 17.4998L33.3333 9.1665" stroke="white" stroke-width="2" stroke-linejoin="round"/>
<path d="M7.49967 32.5L3.33301 36.6667" stroke="white" stroke-width="1.5" stroke-linecap="round" stroke-linejoin="round"/>
<path d="M22.333 30.0002L23.3007 30.9678C23.7833 31.4505 24.0247 31.6918 24.3183 31.6785C24.6122 31.6652 24.8307 31.403 25.2677 30.8785L27.6663 28.0002M31.6663 30.0002C31.6663 33.682 28.6815 36.6668 24.9997 36.6668C21.3178 36.6668 18.333 33.682 18.333 30.0002C18.333 26.3183 21.3178 23.3335 24.9997 23.3335C28.6815 23.3335 31.6663 26.3183 31.6663 30.0002Z" stroke="white" stroke-width="1.5" stroke-linecap="round" stroke-linejoin="round"/>
</svg>
