<svg width="40" height="40" viewBox="0 0 40 40" fill="none" xmlns="http://www.w3.org/2000/svg">
<path d="M31.6663 25.0002V31.4817C31.6663 35.1898 30.4403 36.6668 26.4812 36.6668H13.5182C9.80996 36.6668 8.33301 35.4408 8.33301 31.4817V25.0002C8.33301 18.5568 13.5564 13.3335 19.9997 13.3335C26.443 13.3335 31.6663 18.5568 31.6663 25.0002Z" stroke="white" stroke-width="2" stroke-linecap="round"/>
<path d="M26.6663 25.0002C26.6663 21.3183 23.6815 18.3335 19.9997 18.3335C16.3178 18.3335 13.333 21.3183 13.333 25.0002" stroke="white" stroke-width="2" stroke-linecap="round"/>
<path d="M20 28.3333L21.6667 25" stroke="white" stroke-width="2" stroke-linecap="round"/>
<path d="M27.1877 8.3335H12.8129C11.3403 8.3335 10.6039 8.3335 9.95601 8.0801C9.74079 7.99593 9.53493 7.89181 9.34143 7.7693C8.75888 7.40046 8.35044 6.82156 7.53356 5.66375C6.89691 4.76141 6.57859 4.31023 6.68833 3.94133C6.72306 3.82461 6.78431 3.71645 6.86783 3.62441C7.13181 3.3335 7.70566 3.3335 8.85339 3.3335H31.1473C32.295 3.3335 32.8688 3.3335 33.1328 3.62441C33.2163 3.71645 33.2777 3.82461 33.3123 3.94133C33.422 4.31023 33.1037 4.76141 32.4672 5.66375C31.6502 6.82155 31.2418 7.40048 30.6592 7.7693C30.4657 7.89181 30.2598 7.99593 30.0447 8.0801C29.3967 8.3335 28.6603 8.3335 27.1877 8.3335Z" stroke="white" stroke-width="2" stroke-linecap="round"/>
<path d="M23.3337 13.3335V8.3335M16.667 13.3335V8.3335" stroke="white" stroke-width="2" stroke-linecap="round"/>
</svg>
