<svg width="24" height="24" viewBox="0 0 24 24" fill="none" xmlns="http://www.w3.org/2000/svg">
<path d="M20 2L20 5.13219C20 5.42605 19.6328 5.55908 19.4447 5.33333C17.6146 3.2875 14.955 2 11.9949 2C6.4749 2 2 6.47715 2 12C2 15.9582 4.2985 19.3793 7.633 21M12.3626 22C11.9004 22 11.4455 21.9695 11 21.9106M21.7373 9C21.8486 9.38726 21.9359 9.77864 22 10.1722M21.9658 13.7496C21.8962 14.1396 21.8055 14.5259 21.6946 14.9063M20.1854 18.0963C19.9495 18.4409 19.6937 18.7727 19.419 19.0892M16.6257 21.3766C16.2755 21.574 15.9111 21.7526 15.533 21.9106" stroke="black" stroke-width="1.5" stroke-linecap="round" stroke-linejoin="round"/>
<path d="M15.7313 8.49708C14.3904 7.67462 13.2202 8.00606 12.5172 8.53401C12.2289 8.75048 12.0848 8.85872 12 8.85872C11.9152 8.85872 11.7711 8.75048 11.4828 8.53401C10.7798 8.00606 9.60954 7.67462 8.26872 8.49708C6.50903 9.57647 6.11086 13.1375 10.1698 16.1417C10.9429 16.7139 11.3294 17 12 17C12.6706 17 13.0571 16.7139 13.8302 16.1417C17.8891 13.1375 17.4909 9.57647 15.7313 8.49708Z" stroke="black" stroke-width="1.5" stroke-linecap="round"/>
</svg>
