<svg width="27" height="28" viewBox="0 0 27 28" fill="none" xmlns="http://www.w3.org/2000/svg">
<path d="M8.44336 6.06348H18.0059C18.9379 6.06348 19.6934 6.81899 19.6934 7.75098V9.43848" stroke="black" stroke-width="1.5" stroke-linecap="round" stroke-linejoin="round"/>
<path d="M20.8091 2.75L7.09613 2.75002C6.53705 2.75002 5.96521 2.83206 5.51329 3.1638C4.08035 4.21564 2.97606 6.56151 5.2061 8.67942C5.83224 9.2741 6.70744 9.48967 7.56779 9.48967H20.5689C21.4616 9.48967 23.0625 9.61744 23.0625 12.3432V20.7288C23.0625 23.2258 21.0491 25.25 18.5654 25.25H8.40652C5.92747 25.25 4.12446 23.4979 3.98204 20.8302L3.94436 6.31218" stroke="black" stroke-width="1.5" stroke-linecap="round"/>
<path d="M13.1538 25.25C12.8622 24.4063 12.3635 22.6847 12.6612 19.9556C12.7801 18.8657 13.2489 18.0983 12.2259 17.7043V17.7043C11.3324 17.3601 9.47587 17.3447 9.12891 16.4523C9.0016 16.1249 8.95294 15.7175 9.05514 15.2238C9.11245 14.9469 9.35515 14.7562 9.63483 14.7149L9.71152 14.7036C10.7212 14.5546 11.5257 13.7191 12.4128 13.2143C12.9995 12.8804 13.8422 12.7258 14.9937 13.0658C17.9004 13.9239 18.6271 17.6782 17.4852 18.1072C16.3433 18.5363 14.5785 18.6435 14.3709 14.782" stroke="black" stroke-width="1.5" stroke-linecap="round"/>
</svg>
