<svg width="24" height="24" viewBox="0 0 24 24" fill="none" xmlns="http://www.w3.org/2000/svg">
<path d="M2.5 12C2.5 7.52166 2.5 5.28248 3.89124 3.89124C5.28249 2.5 7.52166 2.5 12 2.5C16.4783 2.5 18.7175 2.5 20.1088 3.89124C21.5 5.28248 21.5 7.52166 21.5 12C21.5 16.4783 21.5 18.7175 20.1088 20.1087C18.7175 21.5 16.4783 21.5 12 21.5C7.52166 21.5 5.28249 21.5 3.89124 20.1087C2.5 18.7175 2.5 16.4783 2.5 12Z" stroke="black" stroke-width="1.5"/>
<path d="M7.03662 12.0275H14.0122M14.0122 12.0275C14.0122 12.5979 11.857 14.5148 11.857 14.5148M14.0122 12.0275C14.0122 11.4421 11.857 9.5631 11.857 9.5631M17.0366 7.99512V15.9951" stroke="black" stroke-width="1.5" stroke-linecap="round"/>
</svg>
