<svg width="40" height="40" viewBox="0 0 40 40" fill="none" xmlns="http://www.w3.org/2000/svg">
<path d="M23.334 4.03991C22.0303 3.58238 20.628 3.3335 19.1673 3.3335C12.2409 3.3335 6.62587 8.92993 6.62587 15.8335C6.6257 17.6198 6.52185 19.299 5.47667 20.8383C4.67872 21.9993 3.60167 23.1883 3.38385 24.6162C3.02944 26.9395 4.61399 28.5522 6.55407 29.3558C13.992 32.4372 24.3427 32.4372 31.7805 29.3558C33.7207 28.5522 35.3052 26.9395 34.9508 24.6162C34.7843 23.525 34.116 22.5732 33.4538 21.6668" stroke="white" stroke-width="2" stroke-linecap="round" stroke-linejoin="round"/>
<path d="M35.0007 12.4998C35.0007 9.27817 32.389 6.6665 29.1673 6.6665C25.9457 6.6665 23.334 9.27817 23.334 12.4998C23.334 15.7215 25.9457 18.3332 29.1673 18.3332C32.389 18.3332 35.0007 15.7215 35.0007 12.4998Z" fill="#BA1A1A" stroke="#BA1A1A" stroke-width="1.5" stroke-linecap="round"/>
<path d="M12.5 31.6665C13.2642 34.5418 15.9592 36.6665 19.1667 36.6665C22.3742 36.6665 25.0692 34.5418 25.8333 31.6665" stroke="white" stroke-width="2" stroke-linecap="round" stroke-linejoin="round"/>
</svg>
