<svg width="24" height="24" viewBox="0 0 24 24" fill="none" xmlns="http://www.w3.org/2000/svg">
<ellipse cx="12" cy="6.63976" rx="10.125" ry="2.63976" stroke="#797776" stroke-width="1.5" stroke-linecap="round" stroke-linejoin="round"/>
<path d="M1.875 6.63977V11.0857C1.875 12.518 6.40811 13.6791 12 13.6791C17.5918 13.6791 22.125 12.518 22.125 11.0857V6.63977" stroke="#797776" stroke-width="1.5" stroke-linecap="round" stroke-linejoin="round"/>
<path d="M12 13.6791C13.5251 13.6791 14.7614 12.6943 14.7614 11.4793C14.7614 10.2644 13.5251 9.27954 12 9.27954" stroke="#797776" stroke-width="1.5" stroke-linecap="round" stroke-linejoin="round"/>
<path d="M11.9862 13.8167V16.7039" stroke="#797776" stroke-width="1.5"/>
<path d="M9.86859 19.3C9.71047 19.1418 9.71047 18.8855 9.86859 18.7273L9.33826 18.197L9.86859 18.7273L11.7 16.8959C11.8581 16.7378 12.1145 16.7378 12.2726 16.8959L14.104 18.7273C14.2621 18.8855 14.2621 19.1418 14.104 19.3L12.2726 21.1314C12.1145 21.2895 11.8581 21.2895 11.7 21.1314L9.86859 19.3Z" stroke="#797776" stroke-width="1.5" stroke-linejoin="round"/>
</svg>
