<svg width="24" height="24" viewBox="0 0 24 24" fill="none" xmlns="http://www.w3.org/2000/svg">
<path d="M10 4.49014C8.59641 3.83817 6.67533 3.68277 4.53744 4.99415C1.01807 7.15294 0.22172 14.2749 8.33953 20.2834C9.88572 21.4278 10.6588 22 12 22C13.3412 22 14.1143 21.4278 15.6605 20.2834C23.7783 14.2749 22.9819 7.15294 19.4626 4.99415C17.3247 3.68277 15.4036 3.83817 14 4.49014" stroke="black" stroke-width="1.5" stroke-linecap="round"/>
<path d="M10.75 3C10.75 2.30964 11.3096 1.75 12 1.75C12.6904 1.75 13.25 2.30964 13.25 3V10C13.25 10.6904 12.6904 11.25 12 11.25C11.3096 11.25 10.75 10.6904 10.75 10V3Z" stroke="black" stroke-width="1.5"/>
</svg>
