<svg width="22" height="20" viewBox="0 0 22 20" fill="none" xmlns="http://www.w3.org/2000/svg">
<g clip-path="url(#clip0_2271_204)">
<path d="M9.66021 18.5002L9.66026 18.5002C10.7007 18.056 11.5942 18.259 12.3393 18.5366C12.5257 18.606 12.7582 18.7034 12.9713 18.7926C13.1163 18.8533 13.2523 18.9102 13.3586 18.952C13.6785 19.0778 13.9714 19.1721 14.2678 19.2156C15.619 19.4116 16.8994 18.7545 17.5609 17.5645L17.566 17.5554L17.5661 17.5554C17.5753 17.5394 17.5833 17.5248 17.5902 17.5118C17.5957 17.4993 17.6008 17.4882 17.6047 17.4796L17.6056 17.4776C17.6131 17.4611 17.6169 17.4527 17.62 17.4454L17.62 17.4454C18.771 14.7727 17.4272 11.8752 15.1234 9.8879C14.0666 8.97666 12.8472 8.31737 11.5368 8.166C10.225 8.01604 8.87411 8.44921 7.72837 9.23022C5.34026 10.8608 3.47427 13.6952 4.02511 16.4012L9.66021 18.5002ZM9.66021 18.5002C8.3007 19.0807 7.35095 19.4853 6.23356 19.0951M9.66021 18.5002L6.23356 19.0951M6.23356 19.0951C5.06823 18.6875 4.28397 17.6717 4.02513 16.4013L6.23356 19.0951Z" stroke="#0B1A97" stroke-width="1.5"/>
<path d="M5.09306 3.67577L5.09303 3.67551C4.88445 2.17854 5.82208 0.936472 7.02744 0.769337C7.12327 0.756374 7.21833 0.75 7.3114 0.75C8.4172 0.75 9.49375 1.66792 9.68517 3.0441C9.89262 4.5415 8.9548 5.7834 7.75134 5.95078C7.65334 5.96386 7.55811 5.97019 7.4654 5.97019C6.36119 5.97019 5.28438 5.05235 5.09306 3.67577Z" stroke="#0B1A97" stroke-width="1.5"/>
<path d="M1.82872 6.85521L1.82872 6.8552C1.01619 7.1313 0.501484 8.13728 0.866624 9.19988L1.82872 6.85521ZM1.82872 6.85521L1.8314 6.85429M1.82872 6.85521L1.8314 6.85429M1.8314 6.85429C1.98739 6.80062 2.1467 6.77539 2.30755 6.77539C3.00413 6.77539 3.74513 7.27072 4.03888 8.12458C4.40402 9.18718 3.88931 10.1932 3.07679 10.4693L3.07678 10.4693L3.0741 10.4702C2.91811 10.5238 2.7588 10.5491 2.59795 10.5491C1.90143 10.5491 1.16048 10.0538 0.866689 9.20008L1.8314 6.85429Z" stroke="#0B1A97" stroke-width="1.5"/>
<path d="M12.3156 3.04476L12.3157 3.04442C12.507 1.66806 13.5836 0.75 14.6895 0.75C14.7826 0.75 14.8776 0.756374 14.9735 0.769338C16.1787 0.93646 17.1164 2.17984 16.9079 3.67543L16.9078 3.67577C16.7165 5.05212 15.6399 5.97019 14.534 5.97019C14.441 5.97019 14.3459 5.96382 14.2501 5.95086C13.046 5.78372 12.1071 4.54 12.3156 3.04476Z" stroke="#0B1A97" stroke-width="1.5"/>
<path d="M19.6937 6.77539C18.9971 6.77539 18.2562 7.27065 17.9624 8.12439L19.6937 6.77539ZM19.6937 6.77539C19.8513 6.77539 20.0119 6.80105 20.1727 6.85528M19.6937 6.77539L20.1727 6.85528M20.1727 6.85528C20.986 7.13322 21.4994 8.13832 21.1346 9.19988L20.1727 6.85528ZM18.9242 10.4692C18.111 10.1913 17.5975 9.18615 17.9623 8.12458L21.1345 9.20008C20.8407 10.0538 20.0998 10.5491 19.4033 10.5491C19.2457 10.5491 19.0851 10.5234 18.9242 10.4692Z" stroke="#0B1A97" stroke-width="1.5"/>
</g>
<defs>
<clipPath id="clip0_2271_204">
<rect width="22" height="20" fill="white"/>
</clipPath>
</defs>
</svg>
