<svg width="24" height="24" viewBox="0 0 24 24" fill="none" xmlns="http://www.w3.org/2000/svg">
<path d="M8 10C6.37274 10.0205 5.43781 10.1156 4.80546 10.5585C4 11.1226 4 12.0305 4 13.8464V17.148C4 18.9639 4 19.8718 4.80546 20.4359C5.61091 21 6.90728 21 9.5 21C12.0927 21 13.3891 21 14.1945 20.4359C15 19.8718 15 18.9639 15 17.148V15.1534" stroke="#797776" stroke-width="1.5" stroke-linecap="round"/>
<path d="M11.6339 17.6339C12 17.2678 12 16.6785 12 15.5C12 15.1051 12 14.7763 11.9862 14.5L10.5 13.0138C10.2236 13 9.8949 13 9.5 13C8.32149 13 7.73223 13 7.36611 13.3661C7 13.7323 7 14.3215 7 15.5C7 16.6785 7 17.2678 7.36612 17.6339C7.73224 18 8.32149 18 9.5 18C10.6785 18 11.2677 18 11.6339 17.6339Z" stroke="#797776" stroke-width="1.5" stroke-linejoin="round"/>
<path d="M10 4.8472C11.436 3.67893 13.1511 3 14.9932 3C16.8411 3 18.5612 3.68322 20 4.85827M17.7178 8C16.8977 7.48859 15.9724 7.20085 14.9932 7.20085C14.019 7.20085 13.098 7.4857 12.281 7.99231" stroke="#797776" stroke-width="1.5" stroke-linecap="round"/>
<path d="M15 11H15.0064" stroke="#797776" stroke-width="2" stroke-linecap="round" stroke-linejoin="round"/>
</svg>
