<svg width="256" height="131" viewBox="0 0 256 131" fill="none" xmlns="http://www.w3.org/2000/svg">
<g clip-path="url(#clip0_2095_5042)">
<path d="M121.43 40.0608C121.435 47.5184 117.755 54.2512 112.114 58.3296C111.893 58.4928 111.765 58.432 111.71 58.1792C111.557 57.3632 111.109 56.5984 110.955 55.7792C110.882 54.9104 111.723 57.1392 112.026 57.1152C112.642 57.2832 112.149 55.9296 112.122 55.6512C111.546 53.5168 110.35 51.6864 109.082 49.9216C109 49.7856 108.762 49.5136 108.723 49.3872C109.195 49.6688 110.838 51.744 111.214 51.3024C111.373 50.848 110.95 50.448 110.738 50.072C109.962 48.8304 108.939 47.8032 107.925 46.7664C106.566 45.2928 105.592 43.3856 105.368 41.3584C105.336 39.6864 107.085 38.8816 108.264 38.04C109.426 37.2576 110.296 36.2224 110.896 34.9904C111.8 33.0832 112.248 30.7072 111.179 28.7984C110.56 27.9104 109.326 28.5472 108.578 28.96C107.573 29.4976 106.547 30.0224 105.432 30.264C101.853 30.896 101.739 27.1168 96.5553 27.3152C95.3777 27.3664 94.2913 26.8928 93.5217 25.9792C93.0465 25.5824 91.7569 22.7376 91.6033 24.608C91.5441 25.0672 91.8017 27.184 91.3873 27.2624C90.4897 26.504 89.7537 25.5104 88.8721 24.7136C88.2209 24.1296 87.7457 24.3024 87.7713 25.24C87.8353 26.6416 87.9681 28.0512 88.1521 29.4448C88.2577 30.3488 88.3185 31.2688 88.1089 32.1632C87.7009 33.6224 87.0241 34.9984 85.8337 35.9632C85.3233 36.328 85.4705 36.6992 86.0817 36.6752C86.5745 36.6544 87.0913 36.536 86.6785 37.2016C86.3329 37.792 85.4225 37.7936 84.8865 38.1232C84.6001 38.2832 84.6609 38.5824 84.9889 38.6752C85.1441 38.7376 85.8033 38.776 85.3921 39.0016C84.6593 39.2944 83.8337 39.4 83.0961 39.6576C82.5569 39.8544 82.4257 40.248 83.0705 40.5008C83.2033 40.5664 83.9489 40.6544 83.5105 40.8368C82.9729 41.104 79.7169 41.024 81.2081 41.9952C81.3169 42.112 81.1393 42.1824 81.0321 42.2256C79.7313 42.7056 78.4113 42.9904 77.0753 43.1456C76.8481 43.1856 76.6209 43.12 76.5985 42.8496C76.4817 41.9648 76.4273 41.0576 76.4225 40.136C76.3873 35.3424 77.9265 30.6112 80.6961 26.7984C93.6177 9.18718 121.259 18.2096 121.432 40.0144V40.0624L121.43 40.0608Z" fill="#102852"/>
<path d="M109.435 59.8975C102.746 63.7231 93.7697 63.3055 87.2097 59.2799C86.4689 58.8255 86.9489 57.4495 86.8993 56.6959C86.9537 55.7727 87.0081 54.8495 87.1281 53.9343C87.4481 51.3311 88.5457 48.8831 89.4865 46.4223C89.8225 45.5375 90.2177 44.6799 90.6353 43.8303C91.0673 42.7743 91.7697 41.8799 92.7217 41.2415C94.4337 39.9743 95.9169 38.4351 97.5873 37.1183C98.2385 36.6047 98.9265 36.4527 98.3009 37.1215C98.0673 37.3727 97.6049 37.9311 97.9233 38.1535C98.1153 38.2879 99.7105 37.2159 99.5569 37.6047C99.3153 38.2111 99.2065 38.3455 99.0113 38.7135C98.8049 39.0991 98.4609 39.6767 98.5985 39.9983C98.7793 40.5391 99.5857 40.7215 100.011 40.9935C100.455 41.2543 100.807 41.6159 101.131 42.0047C101.874 42.9167 102.583 43.8559 103.272 44.8095C103.818 45.5231 103.565 45.9215 103.101 46.5583C102.539 47.8607 101.328 48.7567 99.8705 48.3263C99.5905 48.2559 99.2977 48.1727 99.0177 48.1471C98.0945 48.0943 96.4705 48.2959 96.2593 49.3567C96.1217 50.5455 97.0561 51.8543 97.8801 52.6367C99.3441 53.7743 100.957 54.7119 102.648 55.4543C103.077 55.6367 103.515 55.7967 103.96 55.9439C106.117 56.6719 108.192 58.0095 109.44 59.8703L109.435 59.8991V59.8975Z" fill="#102852"/>
<path d="M22.9473 62.5456C19.8945 62.5456 17.0433 62.1712 14.3937 61.4224C11.7441 60.6752 9.38408 59.624 7.31048 58.2688C5.23688 56.9168 3.52328 55.4048 2.16968 53.7328C1.29288 52.6528 0.616083 51.536 0.137683 50.3808C-0.275117 49.3824 0.268883 48.2432 1.30408 47.9344L9.60808 45.4544C10.4449 45.2048 11.3153 45.5984 11.7425 46.36C12.5217 47.752 13.6353 48.9856 15.0833 50.0592C16.9841 51.4704 19.3729 52.2064 22.2545 52.2624C25.3073 52.32 27.7969 51.6576 29.7281 50.2752C31.6561 48.8928 32.6225 47.1088 32.6225 44.9184C32.6225 43.0176 31.8577 41.4208 30.3329 40.1232C28.8065 38.8272 26.7185 37.8336 24.0705 37.144L16.2081 35.0704C13.2721 34.3232 10.6785 33.184 8.43368 31.6576C6.18728 30.1328 4.43048 28.2448 3.16328 25.9984C1.89608 23.7536 1.26248 21.1328 1.26248 18.1376C1.26248 12.4368 3.14888 7.9872 6.92168 4.7904C10.6929 1.5984 16.0353 0 22.9473 0C26.8049 0 30.1889 0.5616 33.0977 1.6848C36.0049 2.8064 38.4385 4.4064 40.3985 6.48C41.8977 8.0688 43.1281 9.8768 44.0881 11.9056C44.5601 12.9024 44.0209 14.0912 42.9665 14.4176L34.9457 16.8896C34.0897 17.1536 33.2001 16.7392 32.7745 15.952C32.0401 14.592 30.9809 13.392 29.6001 12.3552C27.7569 10.9728 25.4241 10.2816 22.6033 10.2816C19.7825 10.2816 17.4625 10.9456 15.8209 12.2688C14.1793 13.5952 13.3585 15.4656 13.3585 17.8848C13.3585 19.7856 14.0065 21.2848 15.3025 22.376C16.5985 23.4704 18.3681 24.3072 20.6145 24.8816L28.5617 26.8688C33.7441 28.136 37.7761 30.4112 40.6561 33.6928C43.5361 36.976 44.9761 40.6336 44.9761 44.664C44.9761 48.2368 44.1121 51.36 42.3841 54.0384C40.6561 56.7168 38.1505 58.8048 34.8689 60.3008C31.5857 61.7968 27.6129 62.5456 22.9473 62.5456Z" fill="#102852"/>
<path d="M75.9361 57.5887C76.3265 58.4287 76.0369 59.4351 75.2497 59.9231C74.2305 60.5551 73.1377 61.0991 71.9729 61.5551C70.2769 62.2095 68.5905 62.5407 66.9233 62.5407C62.1393 62.5407 58.5297 61.3663 56.0753 59.0063C53.6305 56.6383 52.4081 53.2751 52.4081 48.8975V27.9871H47.3009C46.2545 27.9871 45.4065 27.1391 45.4065 26.0927V20.2095C45.4065 19.1631 46.2545 18.3151 47.3009 18.3151H52.4081V6.73754C52.4081 5.69114 53.2561 4.84314 54.3025 4.84314H61.9105C62.9569 4.84314 63.8049 5.69114 63.8049 6.73754V18.3151H72.7105C73.7569 18.3151 74.6049 19.1631 74.6049 20.2095V26.0927C74.6049 27.1391 73.7569 27.9871 72.7105 27.9871H63.8049V46.3855C63.8049 48.2335 64.2129 49.6255 65.0177 50.5823C65.8225 51.5295 67.0065 52.0031 68.5617 52.0031C69.1393 52.0031 69.7649 51.8703 70.4561 51.6143C70.6289 51.5503 70.8033 51.4783 70.9809 51.3983C71.9201 50.9695 73.0273 51.3311 73.4625 52.2671L75.9377 57.5871L75.9361 57.5887Z" fill="#102852"/>
<path d="M151.32 20.1504V27.3648C151.32 28.3664 150.538 29.1952 149.538 29.2496C147.547 29.36 145.653 29.6576 143.845 30.1488C141.514 30.784 139.629 31.816 138.189 33.256C136.749 34.696 136.029 36.544 136.029 38.7888V59.6128C136.029 60.6592 135.181 61.5072 134.134 61.5072H126.526C125.48 61.5072 124.632 60.6592 124.632 59.6128V20.2096C124.632 19.1632 125.48 18.3152 126.526 18.3152H134.134C135.181 18.3152 136.029 19.1632 136.029 20.2096V26.1872C137.744 23.648 139.856 21.7152 142.376 20.3888C144.589 19.2272 146.882 18.5168 149.251 18.256C150.36 18.1344 151.32 19.0336 151.32 20.1488V20.1504Z" fill="#102852"/>
<path d="M200.374 18.3152C201.728 18.3152 202.645 19.6928 202.123 20.9408L183.61 65.2224C182.406 68.1024 181.138 70.6512 179.81 72.8688C178.483 75.0864 176.862 76.8 174.93 78.0128C172.997 79.216 170.486 79.8224 167.37 79.8224C165.816 79.8224 164.101 79.52 162.235 78.912C161.045 78.5328 159.941 78.1088 158.926 77.6432C157.984 77.2112 157.589 76.0832 158.021 75.1408L160.688 69.3184C161.12 68.3744 162.237 67.9552 163.186 68.3808C163.541 68.5408 163.885 68.6832 164.216 68.8128C165.05 69.1248 165.789 69.2864 166.424 69.2864C167.637 69.2864 168.698 68.9552 169.618 68.2912C170.536 67.6288 171.294 66.6624 171.862 65.392L173.72 61.024L155.386 20.9984C154.811 19.744 155.728 18.3136 157.109 18.3136H165.413C166.181 18.3136 166.874 18.7776 167.165 19.488L178.989 48.224L190.227 19.5168C190.512 18.7904 191.211 18.312 191.992 18.312H200.378L200.374 18.3152Z" fill="#102852"/>
<path d="M73.9552 97.3648C71.968 97.3648 70.2128 96.9312 68.6896 96.0672C67.1664 95.2032 65.9728 94.0096 65.1072 92.4848C64.2416 90.9616 63.8096 89.208 63.8096 87.2192C63.8096 85.2304 64.2352 83.4768 65.088 81.9536C65.9408 80.4304 67.128 79.2368 68.6512 78.3728C70.1744 77.5088 71.9168 77.0752 73.8784 77.0752C75.84 77.0752 77.6208 77.5088 79.144 78.3728C80.6672 79.2368 81.8544 80.4304 82.7072 81.9536C83.5584 83.4784 83.9856 85.232 83.9856 87.2192C83.9856 89.2064 83.56 90.9632 82.7072 92.4848C81.856 94.0096 80.6752 95.2032 79.1648 96.0672C77.6544 96.9312 75.9184 97.3648 73.9568 97.3648H73.9552ZM73.9552 92.6416C74.9104 92.6416 75.7424 92.408 76.4528 91.944C77.1632 91.48 77.7248 90.8416 78.1376 90.0272C78.5504 89.2144 78.7568 88.28 78.7568 87.2208C78.7568 86.1616 78.5504 85.2272 78.1376 84.4144C77.7248 83.6016 77.1504 82.9632 76.4144 82.4976C75.6784 82.0336 74.8464 81.8016 73.9168 81.8016C72.9872 81.8016 72.1152 82.0336 71.3808 82.4976C70.6448 82.9632 70.0704 83.6016 69.6576 84.4144C69.2448 85.2288 69.0384 86.1632 69.0384 87.2208C69.0384 88.2784 69.2448 89.216 69.6576 90.0272C70.0704 90.8416 70.6512 91.48 71.4 91.944C72.1488 92.408 73 92.6416 73.9552 92.6416Z" fill="#102852"/>
<path d="M92.4656 77.544H96.2832C96.8064 77.544 97.2304 77.968 97.2304 78.4912V80.6992C97.2304 81.2224 96.8064 81.6464 96.2832 81.6464H92.4656V95.952C92.4656 96.4752 92.0416 96.8992 91.5184 96.8992H88.2976C87.7744 96.8992 87.3504 96.4752 87.3504 95.952V81.6464H85.0864C84.5632 81.6464 84.1392 81.2224 84.1392 80.6992V78.4912C84.1392 77.968 84.5632 77.544 85.0864 77.544H87.3504V75.6016C87.3504 73.536 87.8816 71.9344 88.9424 70.7792C90.0032 69.632 91.6144 69.0544 93.784 69.0544C94.5328 69.0544 95.328 69.1872 96.1616 69.4432C96.6416 69.5936 97.096 69.7568 97.5264 69.936C98.0416 70.1504 98.2656 70.7552 98.0112 71.2512L96.9712 73.2736C96.7488 73.7072 96.232 73.9024 95.7792 73.7216C95.6064 73.6528 95.4448 73.592 95.3408 73.5616C95 73.4576 94.7968 73.432 94.5216 73.432C93.8208 73.432 93.2992 73.6784 92.968 74.152C92.6368 74.6256 92.4656 75.3936 92.4656 76.4544V77.544Z" fill="#102852"/>
<path d="M103.179 127.602V70.9184C103.179 69.872 104.027 69.024 105.074 69.024H125.64C129.901 69.024 133.674 69.8736 136.957 71.5728C140.24 73.272 142.802 75.6321 144.645 78.6561C146.488 81.6801 147.41 85.1793 147.41 89.1521C147.41 93.1249 146.515 96.5537 144.731 99.6049C142.946 102.659 140.498 105.062 137.389 106.819C134.278 108.576 130.678 109.454 126.59 109.454H115.014V127.602C115.014 128.648 114.166 129.496 113.12 129.496H105.074C104.027 129.496 103.179 128.648 103.179 127.602ZM115.014 98.568H126.331C128.979 98.568 131.154 97.6913 132.853 95.9329C134.55 94.1761 135.402 91.9153 135.402 89.1521C135.402 86.3889 134.466 84.1409 132.594 82.4129C130.722 80.6849 128.317 79.8209 125.381 79.8209H115.014V98.5664V98.568Z" fill="#102852"/>
<path d="M174.968 118.824C173.47 119.838 171.538 120.339 169.179 120.339C167.218 120.339 165.389 119.922 163.693 119.088C161.997 118.254 160.614 117.042 159.542 115.459C158.661 114.142 158.141 112.618 158.008 110.922H187.71C188.79 110.922 189.658 110.014 189.608 108.936C189.398 104.32 188.448 100.33 186.763 96.9664C184.83 93.1392 182.272 90.2304 179.07 88.24C175.877 86.2592 172.381 85.2656 168.573 85.2656C164.195 85.2656 160.32 86.232 156.957 88.1552C153.584 90.088 150.941 92.7504 149.008 96.152C147.075 99.544 146.118 103.466 146.118 107.901C146.118 112.336 147.046 116.248 148.923 119.65C150.79 123.051 153.366 125.714 156.654 127.637C159.933 129.57 163.704 130.536 167.966 130.536C171.368 130.536 174.39 130.072 177.043 129.152C179.686 128.234 181.979 126.888 183.912 125.134C185.304 123.866 186.514 122.418 187.534 120.798C188.154 119.816 187.688 118.507 186.606 118.085L179.909 115.47C179.077 115.146 178.16 115.47 177.65 116.203C176.931 117.234 176.037 118.106 174.968 118.822V118.824ZM160.15 98.52C161.221 97.288 162.501 96.3792 163.997 95.8016C165.494 95.2336 166.906 94.9392 168.232 94.9392C169.558 94.9392 170.923 95.2336 172.334 95.8016C173.746 96.3792 174.939 97.2896 175.915 98.52C176.73 99.5424 177.203 100.861 177.336 102.451H158.614C158.757 100.859 159.269 99.5424 160.149 98.52H160.15Z" fill="#102852"/>
<path d="M218.114 127.91C217.099 128.536 216.002 129.085 214.835 129.539C213.139 130.203 211.453 130.534 209.786 130.534C205.002 130.534 201.392 129.35 198.938 126.99C196.493 124.63 195.27 121.258 195.27 116.882V95.9809H190.098C189.093 95.9809 188.269 95.1569 188.269 94.1425V88.1265C188.269 87.1217 189.093 86.2977 190.098 86.2977H195.27V74.6545C195.27 73.6401 196.085 72.8257 197.099 72.8257H204.84C205.854 72.8257 206.669 73.6401 206.669 74.6545V86.2977H215.642C216.656 86.2977 217.47 87.1217 217.47 88.1265V94.1425C217.47 95.1569 216.656 95.9809 215.642 95.9809H206.669V114.379C206.669 116.218 207.077 117.619 207.882 118.566C208.686 119.514 209.872 119.987 211.426 119.987C212.003 119.987 212.629 119.864 213.32 119.598C213.501 119.542 213.67 119.466 213.851 119.381C214.789 118.954 215.888 119.315 216.325 120.253L218.806 125.578C219.195 126.411 218.901 127.416 218.115 127.909L218.114 127.91Z" fill="#102852"/>
<path d="M238.549 130.533C235.784 130.533 233.192 130.115 230.773 129.28C228.354 128.446 226.222 127.237 224.381 125.653C223.045 124.504 221.92 123.168 221.008 121.642C220.44 120.691 220.864 119.453 221.869 118.989L228.414 115.978C229.208 115.613 230.13 115.851 230.686 116.525C231.424 117.413 232.315 118.21 233.365 118.915C234.862 119.923 236.589 120.427 238.547 120.427C240.506 120.427 241.917 120.154 242.954 119.606C243.99 119.059 244.507 118.267 244.507 117.23C244.507 116.194 244.09 115.43 243.254 114.941C242.419 114.453 241.282 114.034 239.842 113.688L235.869 112.651C231.722 111.558 228.453 109.816 226.064 107.426C223.674 105.035 222.478 102.285 222.478 99.176C222.478 94.7408 223.904 91.3136 226.755 88.896C229.606 86.4768 233.651 85.2672 238.893 85.2672C241.598 85.2672 244.118 85.6704 246.451 86.4768C248.782 87.2848 250.782 88.4064 252.454 89.8464C253.546 90.7872 254.416 91.8256 255.066 92.9632C255.619 93.9328 255.222 95.1712 254.208 95.6384L248.027 98.4736C247.243 98.8336 246.338 98.6016 245.778 97.9472C245.256 97.3392 244.517 96.8128 243.558 96.368C242.003 95.648 240.448 95.288 238.893 95.288C237.338 95.288 236.141 95.6208 235.307 96.2816C234.472 96.944 234.054 97.8512 234.054 99.0032C234.054 99.752 234.458 100.371 235.264 100.861C236.07 101.35 237.222 101.768 238.718 102.114L244.334 103.496C247.155 104.187 249.416 105.296 251.117 106.822C252.814 108.349 254.053 110.048 254.83 111.92C255.608 113.792 255.997 115.621 255.997 117.406C255.997 119.998 255.232 122.286 253.707 124.274C252.181 126.261 250.109 127.802 247.488 128.894C244.866 129.989 241.886 130.536 238.547 130.536L238.549 130.533Z" fill="#102852"/>
</g>
<defs>
<clipPath id="clip0_2095_5042">
<rect width="256" height="130.534" fill="white"/>
</clipPath>
</defs>
</svg>
