<svg width="27" height="28" viewBox="0 0 27 28" fill="none" xmlns="http://www.w3.org/2000/svg">
<path d="M8.75538 19.7501C7.51745 20.4609 4.27169 21.9122 6.24858 23.7283C7.21428 24.6155 8.28981 25.25 9.64202 25.25H17.358C18.7102 25.25 19.7857 24.6155 20.7514 23.7283C22.7283 21.9122 19.4825 20.4609 18.2446 19.7501C15.3417 18.0833 11.6583 18.0833 8.75538 19.7501Z" stroke="black" stroke-width="1.5" stroke-linecap="round" stroke-linejoin="round"/>
<path d="M17.4375 11.75C17.4375 13.9246 15.6746 15.6875 13.5 15.6875C11.3254 15.6875 9.5625 13.9246 9.5625 11.75C9.5625 9.57538 11.3254 7.8125 13.5 7.8125C15.6746 7.8125 17.4375 9.57538 17.4375 11.75Z" stroke="black" stroke-width="1.5"/>
<path d="M3.21075 18.5C2.59314 17.1122 2.25 15.5761 2.25 13.9602C2.25 7.76895 7.28679 2.75 13.5 2.75C19.7131 2.75 24.75 7.76895 24.75 13.9602C24.75 15.5761 24.4069 17.1122 23.7892 18.5" stroke="black" stroke-width="1.5" stroke-linecap="round"/>
</svg>
