<svg width="27" height="28" viewBox="0 0 27 28" fill="none" xmlns="http://www.w3.org/2000/svg">
<path d="M14.0625 25.25H7.41473C5.67618 25.25 4.29335 24.404 3.05174 23.2212C0.510037 20.7996 4.68315 18.8645 6.27477 17.9168C8.80538 16.41 11.7973 15.9248 14.625 16.4613" stroke="black" stroke-width="1.5" stroke-linecap="round" stroke-linejoin="round"/>
<path d="M17.4375 7.8125C17.4375 10.6084 15.171 12.875 12.375 12.875C9.57906 12.875 7.3125 10.6084 7.3125 7.8125C7.3125 5.01656 9.57906 2.75 12.375 2.75C15.171 2.75 17.4375 5.01656 17.4375 7.8125Z" stroke="black" stroke-width="1.5"/>
<path d="M21.0275 16.8999L21.8194 18.4969C21.9274 18.7191 22.2153 18.9324 22.4583 18.9732L23.8937 19.2136C24.8115 19.3679 25.0275 20.0393 24.366 20.7017L23.2502 21.8268C23.0613 22.0173 22.9578 22.3848 23.0163 22.6479L23.3357 24.0407C23.5877 25.143 23.0073 25.5695 22.0399 24.9933L20.6945 24.1904C20.4515 24.0452 20.0511 24.0452 19.8036 24.1904L18.4582 24.9933C17.4953 25.5695 16.9104 25.1385 17.1623 24.0407L17.4818 22.6479C17.5403 22.3848 17.4368 22.0173 17.2478 21.8268L16.1319 20.7017C15.4751 20.0393 15.6866 19.3679 16.6044 19.2136L18.0397 18.9732C18.2782 18.9324 18.5662 18.7191 18.6742 18.4969L19.4661 16.8999C19.8981 16.0334 20.6 16.0334 21.0275 16.8999Z" stroke="black" stroke-width="1.5" stroke-linecap="round" stroke-linejoin="round"/>
</svg>
