<svg width="128" height="128" viewBox="0 0 128 128" fill="none" xmlns="http://www.w3.org/2000/svg">
<g clip-path="url(#clip0_2095_5078)">
<path d="M101.438 112.874C100.574 112.943 98.1685 106.573 98.3788 109.056C98.8223 111.392 100.103 113.578 100.537 115.91C100.583 116.125 100.647 116.294 100.738 116.409C98.5663 117.936 96.2983 119.33 93.9389 120.579C90.3631 115.343 84.4873 111.575 78.3875 109.518C77.1164 109.102 75.8635 108.64 74.638 108.119C69.8048 105.997 65.1957 103.317 61.0118 100.066C58.6523 97.8302 55.9865 94.0899 56.3797 90.6924C56.9833 87.6608 61.6245 87.0847 64.2583 87.2356C65.0631 87.3087 65.8953 87.5511 66.7 87.7477C70.8611 88.9777 74.3225 86.4171 75.9321 82.695C77.2581 80.8751 77.9806 79.732 76.4213 77.6972C74.4551 74.9719 72.4249 72.2878 70.3032 69.6815C69.375 68.5658 68.3645 67.5324 67.1024 66.7916C65.8815 66.0143 63.5815 65.493 63.0603 63.9475C62.6716 63.0284 63.6547 61.3777 64.2446 60.2757C64.8024 59.2286 65.1134 58.8445 65.8038 57.1115C66.2474 56.0003 61.6885 59.064 61.1352 58.6799C60.2253 58.0397 61.5467 56.4439 62.2143 55.726C64.0022 53.8146 62.036 54.249 60.175 55.7168C55.4012 59.4801 51.167 63.8743 46.2744 67.5004C43.5491 69.3248 41.5418 71.8809 40.3072 74.8988C39.1183 77.3268 37.9843 79.7777 37.0241 82.3063C34.3354 89.339 31.1986 96.335 30.2841 103.775C29.9457 106.395 29.7857 109.033 29.6302 111.667C29.7445 113.391 28.8894 116.249 29.6302 117.991C14.1612 108.128 3.2236 91.8036 0.603516 72.8228C0.85958 72.9783 1.2071 73.0012 1.55461 72.9417C5.37271 72.4982 9.14508 71.6843 12.8626 70.3125C13.1644 70.189 13.6765 69.9833 13.361 69.6495C9.10393 66.8785 18.4091 67.1025 19.9455 66.3435C21.1984 65.8222 19.0676 65.5707 18.688 65.3833C16.8407 64.6608 17.2157 63.5405 18.7612 62.9735C20.8646 62.2373 23.224 61.9355 25.3183 61.0988C26.498 60.454 24.6095 60.3397 24.166 60.166C23.2286 59.9007 23.0548 59.0457 23.8733 58.5884C25.4051 57.6465 28.0069 57.6419 28.9946 55.9546C30.1743 54.0524 28.702 54.3908 27.289 54.4502C25.5423 54.5188 25.1216 53.4626 26.5803 52.4154C29.9869 49.6627 31.9165 45.7303 33.0825 41.5602C33.6861 39.0041 33.5077 36.3749 33.206 33.7914C32.6847 29.8086 32.3052 25.7802 32.1177 21.7746C32.0491 19.0951 33.4071 18.6013 35.2682 20.2703C37.7877 22.5474 39.8865 25.3824 42.4563 27.5544C43.6406 27.3257 42.9044 21.2762 43.0736 19.9639C43.508 14.6186 47.1935 22.7486 48.5561 23.8826C50.7555 26.4935 53.8603 27.847 57.2257 27.7053C72.0408 27.1428 72.3655 37.9432 82.5943 36.1325C85.7814 35.4466 88.7124 33.9423 91.584 32.4059C93.7285 31.2216 97.2494 29.4063 99.019 31.944C102.073 37.3991 100.793 44.1894 98.2096 49.6399C96.4949 53.1608 94.012 56.1238 90.6878 58.3598C87.3178 60.7604 82.3199 63.065 82.4114 67.8433C83.0561 73.6367 85.8363 79.0827 89.7184 83.294C92.6174 86.2616 95.5438 89.1926 97.7615 92.7455C98.3697 93.8201 99.5768 94.9632 99.1241 96.2618C98.0496 97.5239 93.3581 91.5932 92.0047 90.7885C92.1098 91.1497 92.7957 91.927 93.0289 92.3157C96.655 97.3593 100.071 102.59 101.712 108.69C101.795 109.486 103.203 113.354 101.438 112.874Z" fill="#FFAA00"/>
<path d="M128 63.9977C128 85.6717 117.222 104.835 100.738 116.409C100.647 116.294 100.583 116.125 100.537 115.91C100.103 113.578 98.8224 111.392 98.3789 109.056C98.1685 106.573 100.574 112.943 101.438 112.874C103.203 113.354 101.795 109.486 101.712 108.69C100.071 102.59 96.655 97.3592 93.029 92.3157C92.7958 91.927 92.1099 91.1497 92.0047 90.7884C93.3582 91.5932 98.0497 97.5238 99.1242 96.2618C99.5769 94.9632 98.3697 93.82 97.7616 92.7455C95.5439 89.1926 92.6174 86.2616 89.7184 83.294C85.8363 79.0826 83.0562 73.6367 82.4115 67.8432C82.32 63.0649 87.3178 60.7603 90.6878 58.3597C94.0121 56.1237 96.495 53.1607 98.2097 49.6398C100.793 44.1893 102.074 37.3991 99.019 31.944C97.2495 29.4062 93.7286 31.2215 91.584 32.4058C88.7125 33.9422 85.7814 35.4466 82.5944 36.1325C72.3655 37.9432 72.0409 27.1428 57.2257 27.7052C53.8603 27.847 50.7555 26.4935 48.5561 23.8825C47.1935 22.7485 43.508 14.6185 43.0736 19.9638C42.9044 21.2762 43.6406 27.3257 42.4563 27.5543C39.8865 25.3823 37.7877 22.5474 35.2682 20.2702C33.4072 18.6012 32.0492 19.0951 32.1177 21.7746C32.3052 25.7802 32.6847 29.8086 33.206 33.7913C33.5078 36.3748 33.6861 39.004 33.0826 41.5601C31.9165 45.7303 29.9869 49.6627 26.5804 52.4154C25.1217 53.4625 25.5424 54.5188 27.2891 54.4502C28.702 54.3907 30.1744 54.0524 28.9947 55.9546C28.007 57.6418 25.4052 57.6464 23.8734 58.5884C23.0549 59.0456 23.2287 59.9007 24.166 60.1659C24.6096 60.3397 26.4981 60.454 25.3183 61.0987C23.2241 61.9355 20.8646 62.2373 18.7613 62.9735C17.2157 63.5405 16.8408 64.6607 18.6881 65.3832C19.0676 65.5707 21.1984 65.8222 19.9456 66.3434C18.4092 67.1025 9.10399 66.8784 13.3611 69.6494C13.6766 69.9832 13.1644 70.189 12.8626 70.3124C9.14514 71.6842 5.37277 72.4981 1.55467 72.9417C1.20716 73.0011 0.859644 72.9782 0.60358 72.8228C0.205766 69.9375 0 66.9928 0 63.9977C0 28.6517 28.6563 0 64.0023 0C99.3483 0 128 28.6517 128 63.9977Z" fill="#2734A9"/>
<path d="M93.939 120.579C85.0088 125.316 74.8165 128 64.0024 128C51.3501 128 39.5574 124.328 29.6258 117.991C28.8896 116.249 29.7447 113.391 29.6258 111.667C29.7813 109.033 29.9413 106.395 30.2797 103.775C31.1942 96.3349 34.331 89.3389 37.0197 82.3063C37.9799 79.7777 39.1139 77.3268 40.3028 74.8987C41.5374 71.8808 43.5447 69.3248 46.27 67.5003C51.1626 63.8743 55.3968 59.48 60.1706 55.7168C62.0316 54.249 63.9978 53.8146 62.21 55.7259C61.5424 56.4438 60.2209 58.0397 61.1308 58.6798C61.6841 59.0639 66.243 56.0003 65.7994 57.1114C65.109 58.8444 64.798 59.2285 64.2402 60.2757C63.6503 61.3776 62.6672 63.0283 63.0559 63.9474C63.5772 65.493 65.8772 66.0142 67.098 66.7916C68.3601 67.5323 69.3706 68.5657 70.2988 69.6814C72.4205 72.2878 74.4507 74.9719 76.4169 77.6971C77.9762 79.7319 77.2537 80.8751 75.9277 82.695C74.3181 86.417 70.8567 88.9777 66.6957 87.7477C65.8909 87.551 65.0587 87.3087 64.2539 87.2355C61.6201 87.0846 56.9789 87.6608 56.3754 90.6924C55.9821 94.0898 58.6479 97.8302 61.0074 100.066C65.1913 103.317 69.8004 105.997 74.6336 108.118C75.8591 108.64 77.112 109.102 78.3831 109.518C84.483 111.575 90.3587 115.343 93.9345 120.579H93.939Z" fill="#2734A9"/>
</g>
<defs>
<clipPath id="clip0_2095_5078">
<rect width="128" height="128" fill="white"/>
</clipPath>
</defs>
</svg>
